P1 4 5 01110100011101000110
